<svg width="50" height="50" viewBox="0 0 50 50" fill="none" xmlns="http://www.w3.org/2000/svg">
<path d="M47.941 47.3317H46.7117V27.6634H44.2532V25.2049H41.7947V27.6634H39.3362V32.5805H36.8777V27.6634V22.7463H34.4192V27.6634H31.9606V20.2878H29.5021V27.6634V32.5805H27.0436V27.6634H24.5851V22.7463H22.1266V27.6634H19.6681V47.3317H14.7511V20.2878H17.2096C18.5675 20.2878 19.6681 19.1872 19.6681 17.8293V15.3707H41.7947V22.7463H44.2532V15.3707H46.7117C47.8517 15.3707 48.8425 14.5865 49.1046 13.4768C49.3669 12.3672 48.8309 11.2231 47.8114 10.7134L42.8944 8.2549C42.5527 8.08443 42.1765 7.99512 41.7946 7.99512H15.0199L12.0328 1.97823C11.6099 1.13253 10.7495 0.619507 9.83491 0.619507C9.64726 0.619507 9.45797 0.640827 9.26945 0.685868C8.15976 0.94728 7.37553 1.93809 7.37553 3.07804V7.99512H2.45851C1.10057 7.99512 0 9.0957 0 10.4537V12.9122C0 14.2701 1.10057 15.3707 2.45851 15.3707H7.37553V17.8293V47.3317H1.22926C0.5499 47.3317 0 47.8816 0 48.561C0 49.2403 0.5499 49.7902 1.22926 49.7902H47.941C48.6203 49.7902 49.1702 49.2403 49.1702 48.561C49.1702 47.8816 48.6203 47.3317 47.941 47.3317ZM7.37553 12.9122H2.45851V10.4537H7.37553V12.9122ZM41.7947 10.4537L46.7117 12.9122H19.6681C19.6681 12.2598 19.4091 11.6346 18.9477 11.174L18.2282 10.4537H41.7947ZM9.83405 3.07804L12.2926 7.99512H9.83405V3.07804ZM9.83405 10.4537H14.7511L17.2096 12.9122V17.8293H9.83405V10.4537ZM12.2926 47.3317H9.83405V20.2878H12.2926V47.3317ZM44.2532 47.3317H22.1266V30.1219H24.5851V35.039H31.9606V30.1219H34.4192V35.039H41.7947V30.1219H44.2532V47.3317Z" fill="black"/>
<path d="M24.5859 37.4976V44.8732H31.9615V37.4976H24.5859ZM29.503 42.4146H27.0444V39.9561H29.503V42.4146Z" fill="black"/>
<path d="M34.4199 37.4976V44.8732H41.7955V37.4976H34.4199ZM39.3369 42.4146H36.8784V39.9561H39.3369V42.4146Z" fill="black"/>
</svg>
