<svg width="16" height="16" viewBox="0 0 16 16" fill="none" xmlns="http://www.w3.org/2000/svg">
<circle cx="8" cy="8" r="8" fill="white"/>
<path d="M13.8968 12.4536H13.6081V7.83507H13.0308V7.25775H12.4535V7.83507H11.8762V8.98971H11.2989V7.83507V6.68043H10.7216V7.83507H10.1442V6.10311H9.56692V7.83507V8.98971H8.98961V7.83507H8.4123V6.68043H7.83498V7.83507H7.25767V12.4536H6.10304V6.10311H6.68036C6.99923 6.10311 7.25767 5.84467 7.25767 5.5258V4.94848H12.4535V6.68043H13.0308V4.94848H13.6081C13.8758 4.94848 14.1085 4.76432 14.17 4.50374C14.2316 4.24318 14.1058 3.97452 13.8664 3.85484L12.7117 3.27752C12.6315 3.23749 12.5432 3.21652 12.4535 3.21652H6.16616L5.46473 1.80362C5.36543 1.60503 5.16337 1.48456 4.94862 1.48456C4.90455 1.48456 4.8601 1.48956 4.81584 1.50014C4.55526 1.56153 4.3711 1.79419 4.3711 2.06188V3.21652H3.21647C2.8976 3.21652 2.63916 3.47496 2.63916 3.79384V4.37116C2.63916 4.69003 2.8976 4.94848 3.21647 4.94848H4.3711V5.5258V12.4536H2.92782C2.76829 12.4536 2.63916 12.5828 2.63916 12.7423C2.63916 12.9018 2.76829 13.0309 2.92782 13.0309H13.8968C14.0563 13.0309 14.1854 12.9018 14.1854 12.7423C14.1854 12.5828 14.0563 12.4536 13.8968 12.4536ZM4.3711 4.37116H3.21647V3.79384H4.3711V4.37116ZM12.4535 3.79384L13.6081 4.37116H7.25767C7.25767 4.21796 7.19685 4.07115 7.08851 3.963L6.91956 3.79384H12.4535ZM4.94841 2.06188L5.52573 3.21652H4.94841V2.06188ZM4.94841 3.79384H6.10304L6.68036 4.37116V5.5258H4.94841V3.79384ZM5.52573 12.4536H4.94841V6.10311H5.52573V12.4536ZM13.0308 12.4536H7.83498V8.41239H8.4123V9.56703H10.1442V8.41239H10.7216V9.56703H12.4535V8.41239H13.0308V12.4536Z" fill="black"/>
<path d="M8.41235 10.1443V11.8763H10.1443V10.1443H8.41235ZM9.56698 11.299H8.98967V10.7217H9.56698V11.299Z" fill="black"/>
<path d="M10.7216 10.1443V11.8763H12.4535V10.1443H10.7216ZM11.8762 11.299H11.2989V10.7217H11.8762V11.299Z" fill="black"/>
</svg>
