<svg width="70" height="70" viewBox="0 0 70 70" fill="none" xmlns="http://www.w3.org/2000/svg">
<path d="M68.2493 66.5H66.4993V38.5H62.9994V35H59.4994V38.5H55.9994V45.5H52.4995V38.5V31.5H48.9995V38.5H45.4995V28H41.9996V38.5V45.5H38.4996V38.5H34.9996V31.5H31.4997V38.5H27.9997V66.5H20.9998V28H24.4997C26.4329 28 27.9997 26.4332 27.9997 24.5V21H59.4994V31.5H62.9994V21H66.4993C68.1222 21 69.5327 19.8836 69.9059 18.3038C70.2793 16.7241 69.5163 15.0954 68.0649 14.3698L61.0649 10.8698C60.5785 10.6271 60.043 10.5 59.4993 10.5H21.3825L17.13 1.9343C16.528 0.730352 15.303 0 14.0011 0C13.7339 0 13.4645 0.0303516 13.1961 0.0944727C11.6163 0.466621 10.4999 1.87715 10.4999 3.5V10.5H3.49996C1.56678 10.5 0 12.0668 0 14V17.5C0 19.4332 1.56678 21 3.49996 21H10.4999V24.5V66.5H1.74998C0.782844 66.5 0 67.2829 0 68.25C0 69.2171 0.782844 70 1.74998 70H68.2493C69.2164 70 69.9993 69.2171 69.9993 68.25C69.9993 67.2829 69.2164 66.5 68.2493 66.5ZM10.4999 17.5H3.49996V14H10.4999V17.5ZM59.4994 14L66.4993 17.5H27.9997C27.9997 16.5713 27.631 15.6812 26.9742 15.0255L25.9499 14H59.4994ZM13.9999 3.5L17.4998 10.5H13.9999V3.5ZM13.9999 14H20.9998L24.4997 17.5V24.5H13.9999V14ZM17.4998 66.5H13.9999V28H17.4998V66.5ZM62.9994 66.5H31.4997V42H34.9996V49H45.4995V42H48.9995V49H59.4994V42H62.9994V66.5Z" fill="black"/>
</svg>
