<svg width="45" height="52" viewBox="0 0 45 52" fill="none" xmlns="http://www.w3.org/2000/svg">
<path d="M5.80957 0.149281C4.49121 0.479702 3.57715 0.980347 2.61914 1.90153C1.59082 2.87278 0.782227 4.27457 0.37793 5.75648L0.131836 6.65763V25.632V44.6064L0.37793 45.5075C1.08105 48.1008 2.86523 50.1335 5.1416 50.9345L5.93262 51.2148H15.9521H25.9717L26.7627 50.9345C29.0391 50.1335 30.832 48.0908 31.5264 45.5075C31.7637 44.6064 31.7637 44.5963 31.7725 41.6025C31.7725 38.6087 31.7725 38.5986 31.5615 38.2182C31.4473 38.0079 31.1924 37.7175 30.999 37.5673C30.7002 37.337 30.542 37.297 30.0586 37.297C29.5752 37.297 29.417 37.337 29.1182 37.5673C28.9248 37.7175 28.6699 38.0079 28.5557 38.2182C28.3535 38.5886 28.3447 38.6787 28.292 41.3522C28.248 43.9055 28.2305 44.1458 28.0459 44.6865C27.668 45.7879 26.8857 46.639 25.8926 47.0295C25.4707 47.1997 24.8555 47.2097 15.9082 47.2097H6.37207L5.8623 46.9794C4.88672 46.5288 4.14844 45.6477 3.80566 44.5162C3.65625 44.0356 3.64746 43.0544 3.64746 25.632C3.64746 8.20963 3.65625 7.22837 3.80566 6.74775C4.14844 5.6163 4.88672 4.73517 5.8623 4.28459L6.37207 4.05429H15.9082C24.8555 4.05429 25.4707 4.0643 25.8926 4.23452C26.8857 4.62503 27.668 5.47612 28.0459 6.57753C28.2305 7.11823 28.248 7.35854 28.292 9.92183L28.3447 12.6854L28.582 13.0859C28.9424 13.7067 29.373 13.967 30.0586 13.967C30.7441 13.967 31.1748 13.7067 31.5352 13.0859L31.7725 12.6754V9.6715C31.7637 6.66765 31.7637 6.65763 31.5264 5.75648C30.832 3.17316 29.0391 1.13054 26.7627 0.32951L25.9717 0.0491524L16.1719 0.0291252C8.05078 0.0191116 6.27539 0.0391388 5.80957 0.149281Z" fill="#0E0E0F"/>
<path d="M37.9248 17.3122C37.1514 17.7227 36.7559 18.6238 36.9316 19.5851C37.0107 20.0457 37.1338 20.2059 38.6104 21.898L40.2012 23.7304L29.3467 23.7504L18.4922 23.7805L18.1318 24.0508C17.5781 24.4613 17.3584 24.952 17.3584 25.743C17.3584 26.2837 17.4023 26.4639 17.5957 26.8043C17.7275 27.0246 17.9824 27.315 18.167 27.4452L18.501 27.6855L29.3467 27.7155L40.2012 27.7355L38.6104 29.5679C37.1338 31.2601 37.0107 31.4203 36.9316 31.8809C36.6328 33.5029 38.0391 34.8347 39.3311 34.1538C39.5596 34.0336 40.4912 33.0323 42.0205 31.2801C44.1914 28.7769 44.376 28.5366 44.6572 27.8357C44.9473 27.0947 44.9561 27.0647 44.9561 25.733C44.9561 24.4013 44.9473 24.3712 44.6572 23.6303C44.376 22.9294 44.1914 22.6891 42.0205 20.1858C40.4912 18.4336 39.5596 17.4323 39.3311 17.3122C38.8828 17.0718 38.373 17.0718 37.9248 17.3122Z" fill="#0E0E0F"/>
</svg>
